<svg width="128" height="128" viewBox="0 0 128 128" fill="none" xmlns="http://www.w3.org/2000/svg">
<g filter="url(#filter0_dd_713_19138)">
<rect x="16" y="4" width="96" height="96" rx="48" fill="#F9F5FF"/>
<path d="M80 70V66C80 63.8783 79.1571 61.8434 77.6568 60.3431C76.1566 58.8429 74.1217 58 72 58H56C53.8783 58 51.8434 58.8429 50.3431 60.3431C48.8429 61.8434 48 63.8783 48 66V70M72 42C72 46.4183 68.4183 50 64 50C59.5817 50 56 46.4183 56 42C56 37.5817 59.5817 34 64 34C68.4183 34 72 37.5817 72 42Z" stroke="#7F56D9" stroke-width="4" stroke-linecap="round" stroke-linejoin="round"/>
<rect x="14" y="2" width="100" height="100" rx="50" stroke="white" stroke-width="4"/>
</g>
<defs>
<filter id="filter0_dd_713_19138" x="0" y="0" width="128" height="128" filterUnits="userSpaceOnUse" color-interpolation-filters="sRGB">
<feFlood flood-opacity="0" result="BackgroundImageFix"/>
<feColorMatrix in="SourceAlpha" type="matrix" values="0 0 0 0 0 0 0 0 0 0 0 0 0 0 0 0 0 0 127 0" result="hardAlpha"/>
<feMorphology radius="2" operator="erode" in="SourceAlpha" result="effect1_dropShadow_713_19138"/>
<feOffset dy="4"/>
<feGaussianBlur stdDeviation="3"/>
<feColorMatrix type="matrix" values="0 0 0 0 0.0627451 0 0 0 0 0.0941176 0 0 0 0 0.156863 0 0 0 0.03 0"/>
<feBlend mode="normal" in2="BackgroundImageFix" result="effect1_dropShadow_713_19138"/>
<feColorMatrix in="SourceAlpha" type="matrix" values="0 0 0 0 0 0 0 0 0 0 0 0 0 0 0 0 0 0 127 0" result="hardAlpha"/>
<feMorphology radius="4" operator="erode" in="SourceAlpha" result="effect2_dropShadow_713_19138"/>
<feOffset dy="12"/>
<feGaussianBlur stdDeviation="8"/>
<feColorMatrix type="matrix" values="0 0 0 0 0.0627451 0 0 0 0 0.0941176 0 0 0 0 0.156863 0 0 0 0.08 0"/>
<feBlend mode="normal" in2="effect1_dropShadow_713_19138" result="effect2_dropShadow_713_19138"/>
<feBlend mode="normal" in="SourceGraphic" in2="effect2_dropShadow_713_19138" result="shape"/>
</filter>
</defs>
</svg>